# xmcd
#
# Track frame offsets:
# 150
# 19438
# 33793
# 49010
# 61266
# 76394
# 90727
# 111882
# 131389
# 147472
# 166017
# 181108
# 199616
# 218140
# 232336
# 248665
# 260761
# 282788
#
# Disc length: 3982 seconds
#
# Revision: 0
# Processed by: cddbd v1.5.2PL0 Copyright (c) Steve Scherf et al.
# Submitted via: Audion 3.0.2 (http://www.panic.com/audion/)
#
DISCID=fa0f8c12
DTITLE=electronic - Electronico 2008
DYEAR=1900
DGENRE=
TTITLE0=summer love
TTITLE1=came with
TTITLE2=first time offer
TTITLE3=world hold on
TTITLE4=be my bury friend
TTITLE5=dont cha
TTITLE6=dreams
TTITLE7=electronic electro
TTITLE8=dance life
TTITLE9=the world is mine
TTITLE10=cochabamba
TTITLE11=take off
TTITLE12=in love with my self
TTITLE13=qui
TTITLE14=celular
TTITLE15=revolution
TTITLE16=one time
TTITLE17=6ia
EXTD=
EXTT0=
EXTT1=
EXTT2=
EXTT3=
EXTT4=
EXTT5=
EXTT6=
EXTT7=
EXTT8=
EXTT9=
EXTT10=
EXTT11=
EXTT12=
EXTT13=
EXTT14=
EXTT15=
EXTT16=
EXTT17=
PLAYORDER=
